<svg width="15" height="18" viewBox="0 0 15 18" fill="none" xmlns="http://www.w3.org/2000/svg">
<path d="M1.07273 5.61426C0.774099 5.61426 0.52072 5.7184 0.312439 5.92668C0.104157 6.13496 -1.52588e-05 6.38489 -1.52588e-05 6.6766V11.1554C-1.52588e-05 11.4544 0.104126 11.7076 0.312439 11.9159C0.52072 12.1242 0.774099 12.2284 1.07273 12.2284C1.37115 12.2284 1.62299 12.1242 1.82804 11.9159C2.03269 11.7076 2.13529 11.4544 2.13529 11.1554V6.6766C2.13529 6.38486 2.03115 6.13496 1.82284 5.92668C1.61453 5.7184 1.36444 5.61426 1.07273 5.61426Z" fill="white"/>
<path d="M9.69729 1.59351L10.4368 0.229241C10.4854 0.138921 10.4681 0.0696605 10.3849 0.0209591C10.2945 -0.0210357 10.2251 0.000243756 10.1766 0.0832932L9.42671 1.45847C8.76686 1.16673 8.06896 1.02059 7.33302 1.02059C6.59692 1.02059 5.89896 1.16676 5.23936 1.45847L4.48944 0.0832932C4.44071 0.000243756 4.37129 -0.0208477 4.28116 0.0209591C4.19773 0.0698799 4.18046 0.138921 4.2292 0.229241L4.96878 1.59351C4.21886 1.97594 3.62159 2.50856 3.1772 3.19251C2.7328 3.87683 2.51051 4.62465 2.51051 5.43728H12.1451C12.1451 4.62484 11.9227 3.87699 11.4784 3.19251C11.034 2.50856 10.4401 1.97594 9.69729 1.59351ZM5.42157 3.57786C5.34159 3.65802 5.24607 3.69792 5.13503 3.69792C5.02378 3.69792 4.9302 3.65802 4.85385 3.57786C4.77751 3.49806 4.73934 3.40292 4.73934 3.29151C4.73934 3.18047 4.77751 3.08514 4.85385 3.00516C4.9302 2.92537 5.024 2.88547 5.13503 2.88547C5.24607 2.88547 5.34159 2.92537 5.42157 3.00516C5.50136 3.08533 5.54144 3.18047 5.54144 3.29151C5.54122 3.40273 5.50117 3.49806 5.42157 3.57786ZM9.81178 3.57786C9.73528 3.65802 9.64148 3.69792 9.53063 3.69792C9.41935 3.69792 9.32385 3.65802 9.24403 3.57786C9.16409 3.49806 9.12419 3.40292 9.12419 3.29151C9.12419 3.18047 9.16409 3.08514 9.24403 3.00516C9.32385 2.92537 9.41935 2.88547 9.53063 2.88547C9.64167 2.88547 9.73525 2.92537 9.81178 3.00516C9.88818 3.08533 9.92629 3.18047 9.92629 3.29151C9.92629 3.40273 9.88815 3.49806 9.81178 3.57786Z" fill="white"/>
<path d="M2.55186 12.7489C2.55186 13.0686 2.6629 13.3392 2.885 13.5613C3.10729 13.7834 3.37794 13.8945 3.69744 13.8945H4.46827L4.47883 16.2592C4.47883 16.5578 4.58297 16.8113 4.79125 17.0196C4.99953 17.228 5.24965 17.3321 5.54117 17.3321C5.83962 17.3321 6.09315 17.228 6.30147 17.0196C6.50978 16.8113 6.61392 16.5578 6.61392 16.2592V13.8947H8.05127V16.2592C8.05127 16.5578 8.15538 16.8113 8.36369 17.0196C8.57201 17.228 8.82532 17.3321 9.12399 17.3321C9.42243 17.3321 9.67597 17.228 9.88428 17.0196C10.0926 16.8113 10.1967 16.5578 10.1967 16.2592V13.8947H10.9779C11.2904 13.8947 11.5575 13.7836 11.78 13.5615C12.0021 13.3394 12.1132 13.0688 12.1132 12.7491V5.81177H2.55186V12.7489Z" fill="white"/>
<path d="M13.5928 5.61426C13.3011 5.61426 13.0512 5.71686 12.8429 5.92151C12.6346 6.12653 12.5305 6.37837 12.5305 6.6766V11.1554C12.5305 11.4544 12.6346 11.7076 12.8429 11.9159C13.0512 12.1242 13.3013 12.2284 13.5928 12.2284C13.8913 12.2284 14.1448 12.1242 14.3531 11.9159C14.5615 11.7076 14.6656 11.4544 14.6656 11.1554V6.6766C14.6656 6.37834 14.5615 6.12653 14.3531 5.92151C14.1448 5.71686 13.8913 5.61426 13.5928 5.61426Z" fill="white"/>
</svg>
