<svg width="14" height="17" viewBox="0 0 14 17" fill="none" xmlns="http://www.w3.org/2000/svg">
<path d="M4.36348 16.0458C1.97538 16.0321 0 11.1572 0 8.67448C0 4.61903 3.04227 3.73119 4.21474 3.73119C4.74312 3.73119 5.30733 3.93869 5.80496 4.1223C6.15296 4.25039 6.51286 4.38261 6.71302 4.38261C6.83283 4.38261 7.11517 4.27013 7.36444 4.17144C7.89605 3.95981 8.55757 3.69678 9.32789 3.69678C9.32927 3.69678 9.33112 3.69678 9.33246 3.69678C9.90767 3.69678 11.6517 3.82301 12.7002 5.39763L12.9458 5.76671L12.5924 6.03344C12.0874 6.41447 11.166 7.10951 11.166 8.48628C11.166 10.1169 12.2095 10.744 12.7108 11.0456C12.9321 11.1787 13.1611 11.316 13.1611 11.6162C13.1611 11.8123 11.5966 16.0215 9.32466 16.0215C8.76873 16.0215 8.37577 15.8544 8.02915 15.707C7.67843 15.5578 7.37588 15.4293 6.87596 15.4293C6.62255 15.4293 6.3021 15.5491 5.96285 15.6763C5.49925 15.8493 4.9745 16.0458 4.37908 16.0458H4.36348Z" fill="white"/>
<path d="M9.56856 0C9.62772 2.13346 8.10197 3.61356 6.57799 3.52073C6.32687 1.81816 8.10178 0 9.56856 0Z" fill="white"/>
</svg>
