<svg width="11" height="7" viewBox="0 0 11 7" fill="none" xmlns="http://www.w3.org/2000/svg">
<path d="M4.5358 0.415419L0.295798 4.65542C0.20207 4.74838 0.127675 4.85898 0.0769067 4.98084C0.026138 5.1027 1.35086e-08 5.23341 1.19343e-08 5.36542C1.03601e-08 5.49743 0.026138 5.62814 0.0769067 5.75C0.127675 5.87185 0.20207 5.98246 0.295798 6.07542C0.483161 6.26167 0.736612 6.36621 1.0008 6.36621C1.26498 6.36621 1.51844 6.26167 1.7058 6.07542L5.2458 2.53542L8.7858 6.07542C8.97316 6.26167 9.22661 6.36621 9.4908 6.36621C9.75498 6.36621 10.0084 6.26167 10.1958 6.07542C10.2885 5.98198 10.3618 5.87116 10.4116 5.74932C10.4613 5.62749 10.4866 5.49703 10.4858 5.36542C10.4866 5.23381 10.4613 5.10335 10.4116 4.98151C10.3618 4.85967 10.2885 4.74886 10.1958 4.65542L5.9558 0.415419C5.86284 0.32169 5.75223 0.247296 5.63037 0.196528C5.50852 0.145759 5.37781 0.11962 5.2458 0.11962C5.11379 0.11962 4.98308 0.145759 4.86122 0.196528C4.73936 0.247296 4.62876 0.32169 4.5358 0.415419Z" fill="#4A4A4A"/>
</svg>
