<svg width="11" height="7" viewBox="0 0 11 7" fill="none" xmlns="http://www.w3.org/2000/svg">
<path d="M5.95004 6.07039L10.19 1.83039C10.2838 1.73743 10.3582 1.62683 10.4089 1.50497C10.4597 1.38311 10.4858 1.2524 10.4858 1.12039C10.4858 0.988379 10.4597 0.857673 10.4089 0.735814C10.3582 0.613955 10.2838 0.503354 10.19 0.410391C10.0027 0.22414 9.74923 0.119598 9.48504 0.119598C9.22086 0.119598 8.9674 0.22414 8.78004 0.410391L5.24004 3.95039L1.70004 0.41039C1.51268 0.22414 1.25923 0.119598 0.995041 0.119598C0.730855 0.119598 0.477404 0.224139 0.290041 0.41039C0.19736 0.50383 0.124035 0.614647 0.0742702 0.736484C0.0245056 0.858322 -0.000719108 0.988784 4.19179e-05 1.12039C-0.00071912 1.252 0.0245056 1.38246 0.0742702 1.5043C0.124035 1.62613 0.19736 1.73695 0.290041 1.83039L4.53004 6.07039C4.623 6.16412 4.73361 6.23851 4.85546 6.28928C4.97732 6.34005 5.10803 6.36619 5.24004 6.36619C5.37205 6.36619 5.50276 6.34005 5.62462 6.28928C5.74648 6.23851 5.85708 6.16412 5.95004 6.07039Z" fill="#F0047F"/>
</svg>
