<svg width="18" height="17" viewBox="0 0 18 17" fill="none" xmlns="http://www.w3.org/2000/svg">
<rect x="5" y="8.77425" width="1" height="2.58065" rx="0.5" fill="#F0047F"/>
<rect x="12.5" y="8.77432" width="1" height="2.58065" rx="0.5" fill="#F0047F"/>
<path d="M14 4H4C2.34315 4 1 5.34249 1 6.99934V13.0009C1 14.6577 2.3425 16 3.99936 16H14.0008C15.6577 16 17 14.6569 17 13V7C17 5.34315 15.6569 4 14 4Z" stroke="#4A4A4A"/>
<path d="M1 8.77425H17" stroke="#4A4A4A"/>
<path d="M6.5 3C6.5 1.61929 7.61929 0.5 9 0.5C10.3807 0.5 11.5 1.61929 11.5 3V4H6.5V3Z" stroke="#4A4A4A"/>
</svg>
