<svg width="18" height="17" viewBox="0 0 18 17" fill="none" xmlns="http://www.w3.org/2000/svg">
<path d="M8.55556 9.88904H5V16.1113H8.55556V9.88904Z" stroke="#F0047F" stroke-miterlimit="10" stroke-linecap="round" stroke-linejoin="round"/>
<path d="M12.7784 9.44458H11.42C11.0659 9.44458 10.7778 9.72149 10.7778 10.0617V13.0285C10.7778 13.3687 11.0659 13.6456 11.42 13.6456H12.7784C13.1324 13.6456 13.4206 13.3687 13.4206 13.0285V10.0617C13.4123 9.72149 13.1324 9.44458 12.7784 9.44458Z" fill="#F0047F"/>
<path d="M2.07029 5.90515V15.138C2.07029 15.6759 2.5231 16.1111 3.08295 16.1111H14.9796C15.5395 16.1111 15.9923 15.6759 15.9923 15.138V5.90515" stroke="#4A4A4A" stroke-miterlimit="10" stroke-linecap="round" stroke-linejoin="round"/>
<path d="M4.69231 5.88889H2.64103C1.73846 5.88889 1 5.17921 1 4.31183V2.57706C1 1.70968 1.73846 1 2.64103 1H6.33333V4.31183C6.33333 5.17921 5.60308 5.88889 4.69231 5.88889Z" stroke="#4A4A4A" stroke-miterlimit="10" stroke-linecap="round" stroke-linejoin="round"/>
<path d="M15.359 5.88889H13.3077C12.4051 5.88889 11.6667 5.17921 11.6667 4.31183V1H15.359C16.2615 1 17 1.70968 17 2.57706V4.31183C17 5.17921 16.2697 5.88889 15.359 5.88889Z" stroke="#4A4A4A" stroke-miterlimit="10" stroke-linecap="round" stroke-linejoin="round"/>
<path d="M10.0256 5.88889H7.97436C7.07179 5.88889 6.33333 5.17921 6.33333 4.31183V1H11.6667V4.31183C11.6667 5.17921 10.9364 5.88889 10.0256 5.88889Z" stroke="#4A4A4A" stroke-miterlimit="10" stroke-linecap="round" stroke-linejoin="round"/>
</svg>
