<svg width="17" height="18" viewBox="0 0 17 18" fill="none" xmlns="http://www.w3.org/2000/svg">
<path d="M15.5882 1.01462C15.5882 0.748196 12.8867 4.21171 8.83439 4.21171L6.77955 4.21171C5.83845 4.21171 5.3679 4.21171 5.075 4.5046C4.78211 4.79749 4.78211 5.2689 4.78211 6.21171V9.65999C4.78211 9.8825 4.78211 9.99375 4.75805 10.1014C4.73399 10.2091 4.68665 10.3098 4.59195 10.5112L2.84764 14.2201C2.27624 15.4351 1.99053 16.0426 2.24552 16.4928C2.26203 16.522 2.28001 16.5503 2.29937 16.5777C2.59825 17 3.26958 17 4.61223 17C5.19879 17 5.49207 17 5.73324 16.8515C5.74932 16.8416 5.76634 16.8304 5.78182 16.8196C6.01395 16.6573 6.12795 16.394 6.35597 15.8674C6.88015 14.6569 7.58209 12.9762 8.05257 11.8428C8.31064 11.2211 8.43968 10.9102 8.75678 10.7419C9.07389 10.5736 9.34781 10.6295 9.89565 10.7414C13.4342 11.4638 15.5882 14.8116 15.5882 14.3358V1.01462Z" stroke="#4A4A4A"/>
<path d="M4.78217 10.6058L9.1046 10.6058" stroke="#4A4A4A"/>
<path d="M3.93125 4.21173H4.78213V10.073H3.93065C2.3121 10.073 1 8.76094 1 7.14238C1 5.52383 2.3127 4.21173 3.93125 4.21173Z" stroke="#F0047F"/>
</svg>
