<svg width="14" height="12" viewBox="0 0 14 12" fill="none" xmlns="http://www.w3.org/2000/svg">
<path d="M12 4.66667V3.33333C12 3.15652 11.9298 2.98695 11.8047 2.86193C11.6797 2.7369 11.5101 2.66667 11.3333 2.66667H10.6667V3.33333C10.6667 3.51014 10.5964 3.67971 10.4714 3.80474C10.3464 3.92976 10.1768 4 10 4C9.82319 4 9.65362 3.92976 9.5286 3.80474C9.40357 3.67971 9.33333 3.51014 9.33333 3.33333V2.66667H4V3.33333C4 3.51014 3.92976 3.67971 3.80474 3.80474C3.67971 3.92976 3.51014 4 3.33333 4C3.15652 4 2.98695 3.92976 2.86193 3.80474C2.7369 3.67971 2.66667 3.51014 2.66667 3.33333V2.66667H2C1.82319 2.66667 1.65362 2.7369 1.5286 2.86193C1.40357 2.98695 1.33333 3.15652 1.33333 3.33333V4.66667H12ZM12 6H1.33333V10C1.33333 10.1768 1.40357 10.3464 1.5286 10.4714C1.65362 10.5964 1.82319 10.6667 2 10.6667H11.3333C11.5101 10.6667 11.6797 10.5964 11.8047 10.4714C11.9298 10.3464 12 10.1768 12 10V6ZM10.6667 1.33333H11.3333C11.8638 1.33333 12.3725 1.54405 12.7475 1.91912C13.1226 2.29419 13.3333 2.8029 13.3333 3.33333V10C13.3333 10.5304 13.1226 11.0391 12.7475 11.4142C12.3725 11.7893 11.8638 12 11.3333 12H2C1.46957 12 0.960859 11.7893 0.585786 11.4142C0.210714 11.0391 0 10.5304 0 10L0 3.33333C0 2.8029 0.210714 2.29419 0.585786 1.91912C0.960859 1.54405 1.46957 1.33333 2 1.33333H2.66667V0.666667C2.66667 0.489856 2.7369 0.320286 2.86193 0.195262C2.98695 0.0702379 3.15652 0 3.33333 0C3.51014 0 3.67971 0.0702379 3.80474 0.195262C3.92976 0.320286 4 0.489856 4 0.666667V1.33333H9.33333V0.666667C9.33333 0.489856 9.40357 0.320286 9.5286 0.195262C9.65362 0.0702379 9.82319 0 10 0C10.1768 0 10.3464 0.0702379 10.4714 0.195262C10.5964 0.320286 10.6667 0.489856 10.6667 0.666667V1.33333Z" fill="#4A4A4A"/>
</svg>
