<svg width="18" height="18" viewBox="0 0 18 18" fill="none" xmlns="http://www.w3.org/2000/svg">
<path d="M10.9845 9.75762L11.0978 10.7411C10.5764 10.9075 9.93411 10.9831 9.1709 10.9831C8.24145 10.9831 7.5916 10.7486 7.21377 10.2872C6.83595 9.8257 6.64703 9.01625 6.64703 7.87393C6.64703 6.73161 6.83595 5.92216 7.21377 5.46069C7.5916 4.99922 8.24145 4.76471 9.1709 4.76471C9.84343 4.76471 10.448 4.83279 10.9769 4.96896L10.8636 5.95998C10.3951 5.92972 9.82832 5.91459 9.1709 5.91459C8.73263 5.91459 8.43793 6.05076 8.27169 6.33067C8.113 6.60301 8.03743 7.11743 8.03743 7.87393C8.03743 8.63043 8.113 9.14485 8.27169 9.42476C8.43793 9.6971 8.73263 9.83327 9.1709 9.83327C9.97945 9.83327 10.584 9.80301 10.9845 9.75762Z" fill="#F0047F"/>
<path d="M6.96442 12.3298H11.3245V13.056H6.96442V12.3298Z" fill="#F0047F"/>
<circle cx="9" cy="9" r="8" stroke="#4A4A4A"/>
</svg>
