<svg width="6" height="11" viewBox="0 0 6 11" fill="none" xmlns="http://www.w3.org/2000/svg">
<path d="M4.10547 5.21529L0.220325 1.33014C0.0773527 1.18211 -0.00175861 0.983851 2.96705e-05 0.778058C0.00181795 0.572266 0.0843627 0.375408 0.229886 0.229886C0.375408 0.0843627 0.572266 0.00181795 0.778058 2.96704e-05C0.983851 -0.00175861 1.18211 0.0773527 1.33014 0.220325L5.7702 4.66038C5.91734 4.80757 6 5.00717 6 5.21529C6 5.42341 5.91734 5.62301 5.7702 5.7702L1.33014 10.2103C1.18211 10.3532 0.983851 10.4323 0.778058 10.4305C0.572266 10.4288 0.375408 10.3462 0.229886 10.2007C0.0843627 10.0552 0.00181795 9.85831 2.96705e-05 9.65252C-0.00175861 9.44673 0.0773527 9.24847 0.220325 9.10044L4.10547 5.21529Z" fill="#4A4A4A"/>
</svg>
