<svg width="10" height="16" viewBox="0 0 10 16" fill="none" xmlns="http://www.w3.org/2000/svg">
<path d="M2.4 0H7.2C7.83652 0 8.44697 0.252856 8.89706 0.702944C9.34714 1.15303 9.6 1.76348 9.6 2.4V13.6C9.6 14.2365 9.34714 14.847 8.89706 15.2971C8.44697 15.7471 7.83652 16 7.2 16H2.4C1.76348 16 1.15303 15.7471 0.702944 15.2971C0.252856 14.847 0 14.2365 0 13.6L0 2.4C0 1.76348 0.252856 1.15303 0.702944 0.702944C1.15303 0.252856 1.76348 0 2.4 0V0ZM2.4 1.6C2.18783 1.6 1.98434 1.68429 1.83431 1.83431C1.68429 1.98434 1.6 2.18783 1.6 2.4V13.6C1.6 13.8122 1.68429 14.0157 1.83431 14.1657C1.98434 14.3157 2.18783 14.4 2.4 14.4H7.2C7.41217 14.4 7.61566 14.3157 7.76569 14.1657C7.91571 14.0157 8 13.8122 8 13.6V2.4C8 2.18783 7.91571 1.98434 7.76569 1.83431C7.61566 1.68429 7.41217 1.6 7.2 1.6H2.4ZM4.8 13.6C4.58783 13.6 4.38434 13.5157 4.23431 13.3657C4.08429 13.2157 4 13.0122 4 12.8C4 12.5878 4.08429 12.3843 4.23431 12.2343C4.38434 12.0843 4.58783 12 4.8 12C5.01217 12 5.21566 12.0843 5.36569 12.2343C5.51571 12.3843 5.6 12.5878 5.6 12.8C5.6 13.0122 5.51571 13.2157 5.36569 13.3657C5.21566 13.5157 5.01217 13.6 4.8 13.6Z" fill="white"/>
</svg>
